<?xml version="1.0" encoding="utf-8"?>
<!-- Generator: Adobe Illustrator 19.0.1, SVG Export Plug-In . SVG Version: 6.00 Build 0)  -->
<svg version="1.1" id="logo" xmlns="http://www.w3.org/2000/svg" xmlns:xlink="http://www.w3.org/1999/xlink" x="0px" y="0px"
	 viewBox="0 0 800 445.1" style="enable-background:new 0 0 800 445.1;" xml:space="preserve">
<style type="text/css">
	.st0{fill:#F5B505;}
	.st1{fill:#1B95DC;}
</style>
<g id="logo_1_">
	<g>
		<path class="st0" d="M117,304.9v8.2H70.6v127.8H52V313.1H33.5c-8.2,0-14.6,1.9-19.1,5.7c-4.5,3.8-6.7,9.8-6.7,18H3.6v-15.5
			c0-2.1,0.2-4.1,0.7-6.1c0.5-2,1.4-3.7,2.7-5.3c1.3-1.5,3.1-2.7,5.4-3.7c2.3-1,5.2-1.4,8.8-1.4H117z"/>
		<path class="st0" d="M297.9,440.9h-10.3l-7.2-8.2h-1c-2.6,2.6-6.2,5-10.7,7.1c-4.5,2.1-9.9,3.2-16.1,3.2c-4.4,0-8.7-0.5-12.9-1.5
			c-4.2-1-7.9-3-11.2-5.8c-3.3-2.8-5.9-6.6-7.9-11.4c-2-4.8-3-10.9-3-18.3v-37.1c0-6.2-0.9-11.2-2.6-14.9c-1.7-3.8-5.7-5.7-11.9-5.7
			h-2.1v-4.1h16.5c3.6,0,6.6,0.3,9,0.9c2.4,0.6,4.3,1.9,5.8,3.7c1.4,1.9,2.4,4.4,3,7.6c0.5,3.2,0.8,7.4,0.8,12.5v37.1
			c0,5.2,0.7,9.6,2,13.1c1.3,3.5,3,6.4,5.2,8.6c2.1,2.2,4.5,3.8,7.2,4.7c2.7,1,5.5,1.4,8.3,1.4c4.1,0,7.9-1.1,11.4-3.3
			c3.5-2.2,6.6-4.7,9.2-7.6v-78.7h18.6V440.9z"/>
		<path class="st0" d="M329.3,368.8c0-6.2-0.9-11.2-2.6-14.9c-1.7-3.8-5.7-5.7-11.9-5.7h-2.1v-4.1h16.5c5.2,0,9.2,0.8,11.9,2.3
			c2.7,1.5,4.6,3.8,5.7,7h1c2.1-2.6,5.2-5.2,9.3-7.6c4.1-2.5,9.3-3.7,15.5-3.7c2.1,0,4.3,0.2,6.6,0.7c2.3,0.5,4.3,1.3,5.8,2.4
			c1.5,1.1,2.8,2.4,3.9,3.9c1.1,1.5,2.2,3.3,3.3,5.4l-8.2,6.2c-1.5-2.1-3.7-3.6-6.7-4.6c-3-1-6.2-1.5-9.8-1.5
			c-4.1,0-7.9,0.9-11.3,2.8c-3.4,1.9-6.2,4.4-8.2,7.5v76.3h-18.6V368.8z"/>
		<path class="st1" d="M473.7,309c-8.8,0-16.3,1.8-22.6,5.4c-6.3,3.6-11.4,8.2-15.4,14c-4,5.8-6.9,12.4-8.8,19.8
			c-1.9,7.4-2.8,15-2.8,22.7c0,12.4,1.3,22.8,3.9,31.2c2.6,8.5,6.2,15.3,10.7,20.4c4.5,5.2,9.8,8.8,15.8,11c6,2.2,12.3,3.3,19.1,3.3
			c7.4,0,13.6-0.6,18.6-2c4.9-1.3,9.4-3.1,13.4-5.3v-35.9c0-2.9,0.3-5.7,0.9-8.6c0.6-2.8,2.1-5.4,4.4-7.7c2.3-2.3,5.8-4.2,10.3-5.7
			c4.5-1.4,10.6-2.2,18.3-2.2v4.1c-3.3,0-6,0.4-8,1.3c-2.1,0.9-3.6,2.2-4.7,3.9c-1.1,1.7-1.8,3.8-2.2,6.2c-0.3,2.4-0.5,5.1-0.5,8.1
			v38.7c-7.4,4.5-15.2,7.8-23.3,9.9c-8.1,2.1-17.2,3.1-27.2,3.1c-10.3,0-19.8-1.9-28.3-5.8c-8.6-3.8-16-9.1-22.2-15.9
			c-6.2-6.7-11-14.6-14.4-23.6c-3.4-9-5.2-18.7-5.2-29c0-9.8,1.5-18.9,4.4-27.4c3-8.5,7.2-15.9,12.8-22.3
			c5.6-6.3,12.3-11.3,20.2-14.9c7.9-3.6,16.7-5.5,26.5-5.5c12.5,0,22.9,1.6,31.3,4.8c8.4,3.2,14.4,7.1,18.1,11.6
			c1.2,1.5,2.2,3.4,3,5.7c0.8,2.3,1.3,4.6,1.5,7.1c0.3,2.5,0.4,5,0.5,7.6c0.1,2.6,0.1,5.1,0.1,7.4h-4.1c-2.6-12-7.5-21-14.7-27
			C496.1,312,486.2,309,473.7,309z"/>
		<path class="st1" d="M577.2,440.9h-18.5V329.6c0-6.2-0.9-11.2-2.6-14.9c-1.7-3.8-5.7-5.7-11.9-5.7h-4.1v-4.1h18.6
			c3.6,0,6.6,0.3,9,0.9c2.4,0.6,4.3,1.9,5.8,3.7c1.4,1.9,2.4,4.4,3,7.6c0.5,3.2,0.8,7.4,0.8,12.5V440.9z"/>
		<g>
			<g>
				<path class="st1" d="M602.1,392.5c0-7,1-13.6,3-19.7c2-6.1,4.9-11.4,8.9-16c3.9-4.5,8.7-8.1,14.2-10.8c5.6-2.7,12-4,19.3-4
					c7.1,0,13.5,1.3,19.2,4c5.6,2.7,10.4,6.3,14.3,10.8c3.9,4.5,6.9,9.9,8.9,16c2,6.1,3,12.7,3,19.7c0,7-1,13.6-3,19.7
					c-2,6.1-4.9,11.4-8.9,16c-3.9,4.5-8.7,8.1-14.3,10.8c-5.6,2.7-12,4-19.2,4c-7.3,0-13.7-1.3-19.3-4c-5.6-2.7-10.3-6.3-14.2-10.8
					c-3.9-4.5-6.9-9.9-8.9-16C603.1,406.1,602.1,399.5,602.1,392.5z M673.3,392.5c0-5.9-0.6-11.4-1.9-16.6c-1.2-5.2-3-9.6-5.3-13.4
					c-2.3-3.8-5-6.8-8.1-9c-3.2-2.2-6.7-3.3-10.5-3.3c-3.9,0-7.4,1.1-10.5,3.3c-3.2,2.2-5.9,5.2-8.1,9c-2.3,3.8-4,8.2-5.3,13.4
					c-1.2,5.2-1.9,10.7-1.9,16.6c0,5.9,0.6,11.4,1.9,16.6c1.2,5.1,3,9.6,5.3,13.4c2.3,3.8,5,6.8,8.1,9c3.2,2.2,6.7,3.3,10.5,3.3
					c3.8,0,7.3-1.1,10.5-3.3c3.2-2.2,5.9-5.2,8.1-9c2.3-3.8,4-8.2,5.3-13.4C672.6,403.9,673.3,398.4,673.3,392.5z"/>
			</g>
		</g>
		<g>
			<g>
				<path class="st0" d="M99.5,392.5c0-7,1-13.6,3-19.7c2-6.1,4.9-11.4,8.9-16c3.9-4.5,8.7-8.1,14.2-10.8c5.6-2.7,12-4,19.3-4
					c7.1,0,13.5,1.3,19.2,4c5.6,2.7,10.4,6.3,14.3,10.8c3.9,4.5,6.9,9.9,8.9,16c2,6.1,3,12.7,3,19.7c0,7-1,13.6-3,19.7
					c-2,6.1-4.9,11.4-8.9,16c-3.9,4.5-8.7,8.1-14.3,10.8c-5.6,2.7-12,4-19.2,4c-7.3,0-13.7-1.3-19.3-4c-5.6-2.7-10.3-6.3-14.2-10.8
					c-3.9-4.5-6.9-9.9-8.9-16C100.5,406.1,99.5,399.5,99.5,392.5z M170.6,392.5c0-5.9-0.6-11.4-1.9-16.6c-1.2-5.2-3-9.6-5.3-13.4
					c-2.3-3.8-5-6.8-8.1-9c-3.2-2.2-6.7-3.3-10.5-3.3c-3.8,0-7.4,1.1-10.5,3.3c-3.2,2.2-5.9,5.2-8.1,9c-2.3,3.8-4,8.2-5.3,13.4
					c-1.2,5.2-1.9,10.7-1.9,16.6c0,5.9,0.6,11.4,1.9,16.6c1.2,5.1,3,9.6,5.3,13.4c2.3,3.8,5,6.8,8.1,9c3.2,2.2,6.7,3.3,10.5,3.3
					c3.8,0,7.3-1.1,10.5-3.3c3.2-2.2,5.9-5.2,8.1-9c2.3-3.8,4-8.2,5.3-13.4C170,403.9,170.6,398.4,170.6,392.5z"/>
			</g>
		</g>
		<path class="st1" d="M714.5,329.6c0-6.2-0.9-11.2-2.6-14.9c-1.7-3.8-5.7-5.7-11.9-5.7H696v-4.1h18.6c3.6,0,6.6,0.3,9,0.9
			c2.4,0.6,4.3,1.9,5.8,3.7c1.4,1.9,2.4,4.4,3,7.6c0.5,3.2,0.8,7.4,0.8,12.5v18.5c3.2-1.5,6.8-2.9,10.9-4.2c4.1-1.3,9.1-2,14.8-2
			c6.7,0,12.5,1.3,17.4,4c4.9,2.7,8.9,6.3,12.2,10.8c3.2,4.5,5.6,9.9,7.2,16c1.6,6.1,2.4,12.7,2.4,19.7c0,7-0.8,13.6-2.4,19.7
			c-1.6,6.1-3.9,11.4-7,16c-3.1,4.5-6.9,8.1-11.5,10.8c-4.6,2.7-10,4-16.2,4c-7.7,0-13.7-1.2-18.1-3.7c-4.4-2.5-7.6-5-9.7-7.6h-1
			l-7.2,9.3h-10.3V329.6z M733.1,422.4c2.1,3.2,4.8,6,8.1,8.6c3.4,2.5,7.9,3.8,13.5,3.8c4.1,0,7.7-1.1,10.6-3.3c3-2.2,5.4-5.2,7.4-9
			c2-3.8,3.4-8.2,4.3-13.4c0.9-5.2,1.3-10.7,1.3-16.6c0-5.9-0.5-11.4-1.4-16.6c-1-5.2-2.5-9.6-4.5-13.4c-2.1-3.8-4.7-6.8-7.9-9
			c-3.2-2.2-7.2-3.3-11.9-3.3c-3.2,0-6.4,0.7-9.8,2c-3.4,1.3-6.6,2.7-9.8,4.2V422.4z"/>
	</g>
	<g>
		<path class="st0" d="M400.8,10.5c-70.7,0-128.1,57.3-128.1,128.1c0,70.7,57.3,128.1,128.1,128.1c70.7,0,128.1-57.3,128.1-128.1
			C528.9,67.8,471.5,10.5,400.8,10.5z M358.2,201h-15.6V93.3h-15.6c-7,0-12.3,1.6-16.1,4.8c-3.8,3.2-5.7,8.3-5.7,15.2h-3.5v-13
			c0-1.7,0.2-3.4,0.6-5.1c0.4-1.7,1.2-3.2,2.3-4.4c1.1-1.3,2.6-2.3,4.5-3.1c1.9-0.8,4.4-1.2,7.4-1.2h91.3l-10.4,7h-39.1V201z
			 M493.2,145.5c-1.7,0.8-3.1,1.9-4,3.3c-0.9,1.4-1.5,3.2-1.8,5.2c-0.3,2-0.4,4.3-0.4,6.9v32.7c-6.3,3.8-12.8,6.6-19.6,8.3
			c-6.8,1.7-14.5,2.6-22.9,2.6c-8.7,0-16.7-1.6-23.9-4.9c-7.2-3.2-13.5-7.7-18.7-13.4c-5.2-5.7-9.3-12.3-12.2-19.9
			c-2.9-7.6-4.3-15.7-4.3-24.4c0-8.2,1.2-15.9,3.7-23.1c2.5-7.2,6.1-13.4,10.8-18.8c4.7-5.3,10.4-9.5,17-12.6
			c6.7-3.1,14.1-4.6,22.3-4.6c10.5,0,19.4,1.4,26.4,4.1c7.1,2.7,12.2,6,15.3,9.8c1,1.3,1.9,2.9,2.5,4.8c0.6,1.9,1.1,3.9,1.3,6
			c0.2,2.1,0.4,4.2,0.4,6.4c0.1,2.2,0.1,4.3,0.1,6.3h-3.5c-2.2-10.1-6.3-17.7-12.4-22.8c-6.1-5.1-14.4-7.6-24.9-7.6
			c-7.4,0-13.8,1.5-19,4.5c-5.3,3-9.6,7-12.9,11.8c-3.4,4.9-5.8,10.4-7.4,16.7c-1.6,6.3-2.3,12.6-2.3,19.1c0,10.4,1.1,19.2,3.3,26.3
			c2.2,7.1,5.2,12.9,9,17.2c3.8,4.3,8.3,7.4,13.3,9.3c5,1.9,10.4,2.8,16.1,2.8c6.3,0,11.5-0.5,15.6-1.6c4.2-1.1,7.9-2.6,11.3-4.4
			v-30.2c0-2.4,0.3-4.8,0.8-7.2c0.5-2.4,1.8-4.5,3.7-6.5c2-2,4.9-3.6,8.7-4.8c3.8-1.2,9-1.8,15.5-1.8v3.5
			C497.2,144.4,494.9,144.8,493.2,145.5z"/>
		<g>
			<path class="st1" d="M400.8,269.8c-72.4,0-131.3-58.9-131.3-131.3c0-72.4,58.9-131.3,131.3-131.3s131.3,58.9,131.3,131.3
				C532.1,210.9,473.2,269.8,400.8,269.8z M400.8,14.8c-68.2,0-123.7,55.5-123.7,123.7c0,68.2,55.5,123.7,123.7,123.7
				s123.7-55.5,123.7-123.7C524.5,70.3,469,14.8,400.8,14.8z"/>
			<path class="st1" d="M400.8,8.2c71.9,0,130.3,58.5,130.3,130.3c0,71.9-58.5,130.3-130.3,130.3s-130.3-58.5-130.3-130.3
				C270.5,66.7,328.9,8.2,400.8,8.2 M400.8,263.2c68.8,0,124.7-55.9,124.7-124.7c0-68.8-55.9-124.7-124.7-124.7
				c-68.8,0-124.7,55.9-124.7,124.7C276.1,207.3,332,263.2,400.8,263.2 M400.8,6.2c-73,0-132.3,59.4-132.3,132.3
				c0,73,59.4,132.3,132.3,132.3s132.3-59.4,132.3-132.3C533.1,65.6,473.8,6.2,400.8,6.2L400.8,6.2z M400.8,261.2
				c-67.7,0-122.7-55-122.7-122.7c0-67.7,55-122.7,122.7-122.7c67.7,0,122.7,55,122.7,122.7C523.5,206.2,468.5,261.2,400.8,261.2
				L400.8,261.2z"/>
		</g>
	</g>
</g>
</svg>
